<?xml version="1.0"?>
<svg xmlns="http://www.w3.org/2000/svg" height="512px" viewBox="0 0 512.00044 512" width="512px"><g><path d="m494.933594 418.132812h-426.667969l17.066406-13.652343c19.65625-15.726563 36.902344-34.238281 51.203125-54.953125 6.207032-8.9375 11.796875-18.289063 16.722656-27.992188 5.402344-10.316406 10.050782-21.011718 13.910157-32l12.03125-34.21875 17.066406-48.640625 28.757813-81.832031c4.101562-11.585938 11.746093-21.585938 21.847656-28.585938 6.585937-4.695312 14.085937-7.949218 22.015625-9.558593 1.375-.339844 2.773437-.59375 4.179687-.769531 5.660156-.796876 11.40625-.796876 17.066406 0 22.015626 3 40.539063 18 48.042969 38.914062l28.757813 81.832031 17.066406 48.640625 12.03125 34.21875c3.859375 10.988282 8.507812 21.683594 13.910156 32 4.929688 9.703125 10.515625 19.054688 16.726563 27.992188 14.296875 20.714844 31.546875 39.226562 51.199219 54.953125zm0 0" fill="#cad9fc" data-original="#CAD9FC"/><path d="m469.332031 418.132812h-401.066406l17.066406-13.652343c19.65625-15.726563 36.902344-34.238281 51.203125-54.953125 6.207032-8.9375 11.796875-18.289063 16.722656-27.992188 5.402344-10.316406 10.050782-21.011718 13.910157-32l12.03125-34.21875 17.066406-48.640625 28.757813-81.832031c4.101562-11.585938 11.746093-21.585938 21.847656-28.585938 6.585937-4.695312 14.085937-7.949218 22.015625-9.558593 20.214843 4.230469 36.769531 18.683593 43.6875 38.144531l28.757812 81.832031 17.066407 48.640625 12.035156 34.21875c3.859375 10.988282 8.507812 21.683594 13.90625 32 4.929687 9.703125 10.519531 19.054688 16.726562 27.992188 14.296875 20.714844 31.546875 39.226562 51.199219 54.953125zm0 0" fill="#e8edfc" data-original="#E8EDFC"/><path d="m110.933594 404.480469c19.652344-15.726563 36.902344-34.238281 51.199218-54.953125 6.210938-8.9375 11.796876-18.289063 16.726563-27.992188 5.402344-10.316406 10.050781-21.011718 13.910156-32l12.03125-34.21875 17.066407-48.640625 28.757812-81.832031c4.101562-11.585938 11.742188-21.585938 21.84375-28.585938 6.503906-4.625 13.890625-7.851562 21.703125-9.480468-1.347656-.28125-2.664063-.652344-4.039063-.847656-5.660156-.796876-11.40625-.796876-17.066406 0-1.40625.175781-2.804687.429687-4.179687.769531-7.929688 1.609375-15.429688 4.863281-22.015625 9.558593-10.101563 7-17.746094 17-21.847656 28.585938l-28.757813 81.832031-17.066406 48.640625-12.03125 34.21875c-3.859375 10.988282-8.507813 21.683594-13.910157 32-4.925781 9.703125-10.515624 19.054688-16.722656 27.992188-14.300781 20.714844-31.546875 39.226562-51.203125 54.953125l-17.066406 13.652343h25.601563zm0 0" fill="#fff" data-original="#FFF"/><g fill="#428dff"><path d="m503.464844 469.332031h-460.796875v-460.796875c0-4.714844-3.820313-8.535156-8.535157-8.535156h-25.597656c-4.714844 0-8.535156 3.820312-8.535156 8.535156 0 4.710938 3.820312 8.53125 8.535156 8.53125h17.066406v34.132813h-8.535156c-4.710937 0-8.53125 3.820312-8.53125 8.535156 0 4.710937 3.820313 8.53125 8.53125 8.53125h8.535156v34.132813h-8.535156c-4.710937 0-8.53125 3.824218-8.53125 8.535156 0 4.710937 3.820313 8.535156 8.53125 8.535156h8.535156v34.132812h-17.066406c-4.714844 0-8.535156 3.820313-8.535156 8.53125 0 4.714844 3.820312 8.535157 8.535156 8.535157h17.066406v34.132812h-8.535156c-4.710937 0-8.53125 3.820313-8.53125 8.53125 0 4.714844 3.820313 8.535157 8.53125 8.535157h8.535156v34.132812h-8.535156c-4.710937 0-8.53125 3.820312-8.53125 8.535156 0 4.710938 3.820313 8.53125 8.53125 8.53125h8.535156v34.132813h-17.066406c-4.714844 0-8.535156 3.820312-8.535156 8.535156 0 4.710937 3.820312 8.53125 8.535156 8.53125h17.066406v34.132813h-8.535156c-4.710937 0-8.53125 3.824218-8.53125 8.535156 0 4.710937 3.820313 8.535156 8.53125 8.535156h8.535156v34.132812h-8.535156c-4.710937 0-8.53125 3.820313-8.53125 8.53125 0 4.714844 3.820313 8.535157 8.53125 8.535157h8.535156v42.664062h-17.066406c-4.714844 0-8.535156 3.820313-8.535156 8.535157 0 4.710937 3.820312 8.53125 8.535156 8.53125h17.066406v17.070312c0 4.710938 3.820313 8.53125 8.53125 8.53125 4.714844 0 8.535157-3.820312 8.535157-8.53125v-17.070312h42.664062v8.535156c0 4.710937 3.820313 8.535156 8.535157 8.535156 4.710937 0 8.53125-3.824219 8.53125-8.535156v-8.535156h34.136718v8.535156c0 4.710937 3.820313 8.535156 8.53125 8.535156 4.714844 0 8.535156-3.824219 8.535156-8.535156v-8.535156h34.132813v17.070312c0 4.710938 3.820313 8.53125 8.53125 8.53125 4.714844 0 8.535156-3.820312 8.535156-8.53125v-17.070312h34.132813v8.535156c0 4.710937 3.820312 8.535156 8.53125 8.535156 4.714844 0 8.535156-3.824219 8.535156-8.535156v-8.535156h34.132812v8.535156c0 4.710937 3.820313 8.535156 8.535157 8.535156 4.710937 0 8.53125-3.824219 8.53125-8.535156v-8.535156h34.132812v17.070312c0 4.710938 3.820313 8.53125 8.535157 8.53125 4.710937 0 8.53125-3.820312 8.53125-8.53125v-17.070312h34.136718v8.535156c0 4.710937 3.820313 8.535156 8.53125 8.535156 4.714844 0 8.535156-3.824219 8.535156-8.535156v-8.535156h34.132813v8.535156c0 4.710937 3.820313 8.535156 8.53125 8.535156 4.714844 0 8.535156-3.824219 8.535156-8.535156v-8.535156h34.132813v17.070312c0 4.710938 3.820312 8.53125 8.53125 8.53125 4.714844 0 8.535156-3.820312 8.535156-8.53125v-25.601562c0-4.714844-3.820312-8.535157-8.535156-8.535157zm0 0" data-original="#428DFF" class="active-path" style="fill:#428ACA" data-old_color="#428DFF"/><path d="m110.933594 238.933594h64.953125l-16.792969 47.773437c-15.425781 43.707031-42.820312 82.199219-79.066406 111.089844l-17.089844 13.675781c-2.828125 2.261719-3.921875 6.066406-2.722656 9.484375 1.199218 3.417969 4.429687 5.707031 8.050781 5.710938h426.667969c3.625 0 6.851562-2.289063 8.054687-5.707031 1.199219-3.421876.109375-7.226563-2.722656-9.488282l-17.089844-13.675781c-36.246093-28.890625-63.640625-67.382813-79.066406-111.089844l-28.796875-81.90625h34.289062c4.710938 0 8.53125-3.820312 8.53125-8.535156v-153.597656h51.199219c4.714844 0 8.535157-3.820313 8.535157-8.535157 0-4.710937-3.820313-8.53125-8.535157-8.53125h-59.730469c-4.714843 0-8.535156 3.820313-8.535156 8.53125v153.601563h-31.753906l-23.101562-65.699219c-9.777344-27.246094-35.664063-45.367187-64.609376-45.234375-28.945312-.132812-54.832031 17.992188-64.609374 45.234375l-35.101563 99.832032h-70.957031c-4.714844 0-8.535156 3.820312-8.535156 8.53125 0 4.714843 3.820312 8.535156 8.535156 8.535156zm64.253906 53.433594 4.011719-11.402344v128.636718h-25.597657v-71.046874c8.679688-14.65625 15.910157-30.125 21.585938-46.1875zm-38.652344 71.519531v45.714843h-43.960937c16.421875-13.433593 31.179687-28.78125 43.960937-45.714843zm334.089844 45.714843h-43.957031v-45.714843c12.78125 16.933593 27.539062 32.28125 43.957031 45.714843zm-61.023438-71.046874v71.046874h-25.601562v-128.636718l4.011719 11.402344c5.675781 16.0625 12.90625 31.53125 21.589843 46.1875zm-79.488281-210.859376 21.109375 60.039063h-35.488281c-4.714844 0-8.535156 3.820313-8.535156 8.53125 0 4.714844 3.820312 8.535156 8.535156 8.535156h41.488281l9.710938 27.621094v177.179687h-76.800782v-315.007812c18.367188 2.914062 33.6875 15.601562 39.980469 33.097656zm-97.023437 0c6.289062-17.496093 21.609375-30.183593 39.976562-33.097656v315.003906h-76.800781v-177.179687zm0 0" data-original="#428DFF" class="active-path" style="fill:#428ACA" data-old_color="#428DFF"/><path d="m68.265625 238.933594h8.535156c4.710938 0 8.53125-3.820313 8.53125-8.535156 0-4.710938-3.820312-8.53125-8.53125-8.53125h-8.535156c-4.710937 0-8.53125 3.820312-8.53125 8.53125 0 4.714843 3.820313 8.535156 8.53125 8.535156zm0 0" data-original="#428DFF" class="active-path" style="fill:#428ACA" data-old_color="#428DFF"/><path d="m508.160156 27.050781c-.4375-.335937-.925781-.597656-1.449218-.769531-.511719-.257812-1.058594-.429688-1.621094-.511719-1.074219-.167969-2.171875-.167969-3.246094 0-.5625.082031-1.113281.253907-1.621094.511719-.542968.1875-1.0625.445312-1.539062.769531l-1.28125 1.023438c-3.300782 3.367187-3.300782 8.753906 0 12.117187.425781.34375.851562.683594 1.28125 1.023438.476562.324218.996094.582031 1.539062.769531.511719.257813 1.058594.429687 1.621094.511719.535156.097656 1.078125.15625 1.621094.171875 2.273437.023437 4.457031-.871094 6.0625-2.476563 1.605468-1.605468 2.496094-3.789062 2.472656-6.058594-.035156-2.257812-.917969-4.421874-2.476562-6.058593-.425782-.339844-.855469-.683594-1.363282-1.023438zm0 0" data-original="#428DFF" class="active-path" style="fill:#428ACA" data-old_color="#428DFF"/><path d="m136.535156 76.800781c4.710938 0 8.53125-3.820312 8.53125-8.535156v-8.53125c0-4.714844-3.820312-8.535156-8.53125-8.535156-4.714844 0-8.535156 3.820312-8.535156 8.535156v8.53125c0 4.714844 3.820312 8.535156 8.535156 8.535156zm0 0" data-original="#428DFF" class="active-path" style="fill:#428ACA" data-old_color="#428DFF"/><path d="m136.535156 93.867188c-4.714844 0-8.535156 3.820312-8.535156 8.53125v8.535156c0 4.710937 3.820312 8.535156 8.535156 8.535156 4.710938 0 8.53125-3.824219 8.53125-8.535156v-8.535156c0-4.710938-3.820312-8.53125-8.53125-8.53125zm0 0" data-original="#428DFF" class="active-path" style="fill:#428ACA" data-old_color="#428DFF"/><path d="m110.933594 93.867188h8.53125c4.714844 0 8.535156-3.820313 8.535156-8.535157 0-4.710937-3.820312-8.53125-8.535156-8.53125h-8.53125c-4.714844 0-8.535156 3.820313-8.535156 8.53125 0 4.714844 3.820312 8.535157 8.535156 8.535157zm0 0" data-original="#428DFF" class="active-path" style="fill:#428ACA" data-old_color="#428DFF"/><path d="m153.601562 93.867188h8.53125c4.714844 0 8.535157-3.820313 8.535157-8.535157 0-4.710937-3.820313-8.53125-8.535157-8.53125h-8.53125c-4.714843 0-8.535156 3.820313-8.535156 8.53125 0 4.714844 3.820313 8.535157 8.535156 8.535157zm0 0" data-original="#428DFF" class="active-path" style="fill:#428ACA" data-old_color="#428DFF"/><path d="m452.265625 298.667969c0 14.136719 11.460937 25.597656 25.601563 25.597656 14.136718 0 25.597656-11.460937 25.597656-25.597656 0-14.140625-11.460938-25.601563-25.597656-25.601563-14.132813.015625-25.585938 11.46875-25.601563 25.601563zm25.601563-8.535157c4.710937 0 8.53125 3.820313 8.53125 8.535157 0 4.710937-3.820313 8.53125-8.53125 8.53125-4.714844 0-8.535157-3.820313-8.535157-8.53125.003907-4.710938 3.824219-8.53125 8.535157-8.535157zm0 0" data-original="#428DFF" class="active-path" style="fill:#428ACA" data-old_color="#428DFF"/></g></g> </svg>
